<?xml version="1.0" standalone="no"?>
<!DOCTYPE svg PUBLIC "-//W3C//DTD SVG 20010904//EN"
 "http://www.w3.org/TR/2001/REC-SVG-20010904/DTD/svg10.dtd">
<svg version="1.0" xmlns="http://www.w3.org/2000/svg"
 width="300.000000pt" height="300.000000pt" viewBox="0 0 300.000000 300.000000"
 preserveAspectRatio="xMidYMid meet">
<metadata>
Created by potrace 1.14, written by Peter Selinger 2001-2017
</metadata>
<g transform="translate(0.000000,300.000000) scale(0.100000,-0.100000)"
fill="#000000" stroke="none">
<path d="M670 2980 c-167 -38 -291 -104 -409 -214 -122 -116 -222 -302 -248
-461 -9 -58 -9 -220 0 -285 24 -172 117 -345 259 -479 l43 -41 -40 -38 c-133
-122 -239 -317 -263 -481 -13 -85 -6 -263 13 -336 69 -274 261 -490 525 -592
75 -29 170 -45 272 -48 237 -7 449 78 615 246 l63 63 62 -62 c75 -74 121 -108
208 -155 207 -111 479 -125 700 -35 330 135 536 449 525 802 -4 126 -7 143
-41 246 -43 129 -118 246 -221 344 l-47 45 53 53 c164 162 249 352 256 573 14
378 -207 702 -565 829 -118 42 -299 55 -428 30 -160 -30 -321 -116 -440 -235
l-63 -63 -45 47 c-122 128 -289 220 -454 252 -79 15 -254 12 -330 -5z m896
-1415 l64 -64 -65 -65 -66 -65 -64 65 -64 65 62 64 c34 35 63 64 65 64 2 1 32
-28 68 -64z"/>
</g>
</svg>
